<svg xmlns="http://www.w3.org/2000/svg" width="980" height="560" viewBox="0 0 980 560">
<rect width="100%" height="100%" fill="#ffffff" />
<text x="490.0" y="30" font-family="Arial, sans-serif" font-size="20" font-weight="700" text-anchor="middle" fill="#222">Время, мкс от размера массива: random</text>
<line x1="86" y1="58" x2="86" y2="482" stroke="#222" stroke-width="1.5" />
<line x1="86" y1="482" x2="952" y2="482" stroke="#222" stroke-width="1.5" />
<line x1="86" y1="482.00" x2="952" y2="482.00" stroke="#e5e5e5" />
<text x="74" y="486.0" font-family="Arial, sans-serif" font-size="12" font-weight="400" text-anchor="end" fill="#222">0</text>
<line x1="86" y1="397.20" x2="952" y2="397.20" stroke="#e5e5e5" />
<text x="74" y="401.2" font-family="Arial, sans-serif" font-size="12" font-weight="400" text-anchor="end" fill="#222">20k</text>
<line x1="86" y1="312.40" x2="952" y2="312.40" stroke="#e5e5e5" />
<text x="74" y="316.4" font-family="Arial, sans-serif" font-size="12" font-weight="400" text-anchor="end" fill="#222">40k</text>
<line x1="86" y1="227.60" x2="952" y2="227.60" stroke="#e5e5e5" />
<text x="74" y="231.60000000000002" font-family="Arial, sans-serif" font-size="12" font-weight="400" text-anchor="end" fill="#222">60k</text>
<line x1="86" y1="142.80" x2="952" y2="142.80" stroke="#e5e5e5" />
<text x="74" y="146.79999999999995" font-family="Arial, sans-serif" font-size="12" font-weight="400" text-anchor="end" fill="#222">80k</text>
<line x1="86" y1="58.00" x2="952" y2="58.00" stroke="#e5e5e5" />
<text x="74" y="62.0" font-family="Arial, sans-serif" font-size="12" font-weight="400" text-anchor="end" fill="#222">100k</text>
<line x1="86.00" y1="482" x2="86.00" y2="488" stroke="#222" />
<text x="86.0" y="506" font-family="Arial, sans-serif" font-size="12" font-weight="400" text-anchor="middle" fill="#222">10</text>
<line x1="230.33" y1="482" x2="230.33" y2="488" stroke="#222" />
<text x="230.33333333333334" y="506" font-family="Arial, sans-serif" font-size="12" font-weight="400" text-anchor="middle" fill="#222">100</text>
<line x1="374.67" y1="482" x2="374.67" y2="488" stroke="#222" />
<text x="374.6666666666667" y="506" font-family="Arial, sans-serif" font-size="12" font-weight="400" text-anchor="middle" fill="#222">500</text>
<line x1="519.00" y1="482" x2="519.00" y2="488" stroke="#222" />
<text x="519.0" y="506" font-family="Arial, sans-serif" font-size="12" font-weight="400" text-anchor="middle" fill="#222">1000</text>
<line x1="663.33" y1="482" x2="663.33" y2="488" stroke="#222" />
<text x="663.3333333333334" y="506" font-family="Arial, sans-serif" font-size="12" font-weight="400" text-anchor="middle" fill="#222">2000</text>
<line x1="807.67" y1="482" x2="807.67" y2="488" stroke="#222" />
<text x="807.6666666666666" y="506" font-family="Arial, sans-serif" font-size="12" font-weight="400" text-anchor="middle" fill="#222">5000</text>
<line x1="952.00" y1="482" x2="952.00" y2="488" stroke="#222" />
<text x="952.0" y="506" font-family="Arial, sans-serif" font-size="12" font-weight="400" text-anchor="middle" fill="#222">10000</text>
<polyline fill="none" stroke="#1f77b4" stroke-width="2.5" stroke-linejoin="round" stroke-linecap="round" points="86.00,482.00 230.33,481.84 374.67,480.58 519.00,476.28 663.33,462.45 807.67,414.94 952.00,238.57" />
<circle cx="86.00" cy="482.00" r="4" fill="#1f77b4" />
<circle cx="230.33" cy="481.84" r="4" fill="#1f77b4" />
<circle cx="374.67" cy="480.58" r="4" fill="#1f77b4" />
<circle cx="519.00" cy="476.28" r="4" fill="#1f77b4" />
<circle cx="663.33" cy="462.45" r="4" fill="#1f77b4" />
<circle cx="807.67" cy="414.94" r="4" fill="#1f77b4" />
<circle cx="952.00" cy="238.57" r="4" fill="#1f77b4" />
<polyline fill="none" stroke="#d62728" stroke-width="2.5" stroke-linejoin="round" stroke-linecap="round" points="86.00,482.00 230.33,481.93 374.67,481.12 519.00,477.57 663.33,471.31 807.67,453.05 952.00,377.54" />
<circle cx="86.00" cy="482.00" r="4" fill="#d62728" />
<circle cx="230.33" cy="481.93" r="4" fill="#d62728" />
<circle cx="374.67" cy="481.12" r="4" fill="#d62728" />
<circle cx="519.00" cy="477.57" r="4" fill="#d62728" />
<circle cx="663.33" cy="471.31" r="4" fill="#d62728" />
<circle cx="807.67" cy="453.05" r="4" fill="#d62728" />
<circle cx="952.00" cy="377.54" r="4" fill="#d62728" />
<polyline fill="none" stroke="#2ca02c" stroke-width="2.5" stroke-linejoin="round" stroke-linecap="round" points="86.00,482.00 230.33,481.93 374.67,480.79 519.00,477.56 663.33,467.36 807.67,441.33 952.00,326.99" />
<circle cx="86.00" cy="482.00" r="4" fill="#2ca02c" />
<circle cx="230.33" cy="481.93" r="4" fill="#2ca02c" />
<circle cx="374.67" cy="480.79" r="4" fill="#2ca02c" />
<circle cx="519.00" cy="477.56" r="4" fill="#2ca02c" />
<circle cx="663.33" cy="467.36" r="4" fill="#2ca02c" />
<circle cx="807.67" cy="441.33" r="4" fill="#2ca02c" />
<circle cx="952.00" cy="326.99" r="4" fill="#2ca02c" />
<line x1="106" y1="76" x2="136" y2="76" stroke="#1f77b4" stroke-width="3" />
<text x="146" y="80" font-family="Arial, sans-serif" font-size="13" font-weight="400" text-anchor="start" fill="#222">bubble_flag</text>
<line x1="106" y1="100" x2="136" y2="100" stroke="#d62728" stroke-width="3" />
<text x="146" y="104" font-family="Arial, sans-serif" font-size="13" font-weight="400" text-anchor="start" fill="#222">shaker</text>
<line x1="106" y1="124" x2="136" y2="124" stroke="#2ca02c" stroke-width="3" />
<text x="146" y="128" font-family="Arial, sans-serif" font-size="13" font-weight="400" text-anchor="start" fill="#222">odd_even</text>
<text x="490.0" y="538" font-family="Arial, sans-serif" font-size="14" font-weight="700" text-anchor="middle" fill="#222">Размер массива n</text>
<text x="24" y="270.0" font-family="Arial, sans-serif" font-size="14" font-weight="700" text-anchor="middle" fill="#222" transform="rotate(-90 24 270.0)">Время, мкс</text>
</svg>